<svg width="40" height="40" viewBox="0 0 40 40" fill="none" xmlns="http://www.w3.org/2000/svg">
<path d="M20 0C16.0444 0 12.1776 1.17298 8.8886 3.37061C5.59962 5.56824 3.03617 8.69181 1.52242 12.3463C0.00866568 16.0009 -0.387401 20.0222 0.384303 23.9018C1.15601 27.7814 3.06082 31.3451 5.85787 34.1421C8.65492 36.9392 12.2186 38.844 16.0982 39.6157C19.9778 40.3874 23.9992 39.9913 27.6537 38.4776C31.3082 36.9638 34.4318 34.4004 36.6294 31.1114C38.827 27.8224 40 23.9556 40 20C40 17.3736 39.4827 14.7728 38.4776 12.3463C37.4725 9.91982 35.9993 7.71504 34.1421 5.85786C32.285 4.00069 30.0802 2.5275 27.6537 1.52241C25.2272 0.517315 22.6264 0 20 0ZM20 6.66C20.6606 6.66 21.3064 6.85589 21.8556 7.22289C22.4049 7.5899 22.833 8.11153 23.0858 8.72184C23.3386 9.33214 23.4047 10.0037 23.2758 10.6516C23.147 11.2995 22.8289 11.8946 22.3617 12.3617C21.8946 12.8288 21.2995 13.1469 20.6516 13.2758C20.0037 13.4047 19.3322 13.3386 18.7218 13.0858C18.1115 12.833 17.5899 12.4049 17.2229 11.8556C16.8559 11.3063 16.66 10.6606 16.66 10C16.66 9.11418 17.0119 8.26464 17.6383 7.63826C18.2646 7.01189 19.1142 6.66 20 6.66ZM26.66 31.66L23.34 33.34L20.56 25.56H19.44L16.66 33.34L13.34 31.66L16.66 22.22V18.9L10 16.66L11.12 13.34L17.78 15.56H22.22L28.88 13.34L30 16.66L23.34 18.9V22.22L26.66 31.66Z" fill="white"/>
</svg>
