<svg width="48" height="48" viewBox="0 0 48 48" fill="none" xmlns="http://www.w3.org/2000/svg">
<path d="M42 8H6C5.46957 8 4.96086 8.21071 4.58579 8.58579C4.21071 8.96086 4 9.46957 4 10V38C4 38.5304 4.21071 39.0391 4.58579 39.4142C4.96086 39.7893 5.46957 40 6 40H42C42.5304 40 43.0391 39.7893 43.4142 39.4142C43.7893 39.0391 44 38.5304 44 38V10C44 9.46957 43.7893 8.96086 43.4142 8.58579C43.0391 8.21071 42.5304 8 42 8ZM40 30C38.4087 30 36.8826 30.6321 35.7574 31.7574C34.6321 32.8826 34 34.4087 34 36H14C14 34.4087 13.3679 32.8826 12.2426 31.7574C11.1174 30.6321 9.5913 30 8 30V18C9.5913 18 11.1174 17.3679 12.2426 16.2426C13.3679 15.1174 14 13.5913 14 12H34C34 13.5913 34.6321 15.1174 35.7574 16.2426C36.8826 17.3679 38.4087 18 40 18V30Z" fill="white"/>
<path d="M24 16C19.588 16 16 19.588 16 24C16 28.412 19.588 32 24 32C28.412 32 32 28.412 32 24C32 19.588 28.412 16 24 16ZM24 28C21.794 28 20 26.206 20 24C20 21.794 21.794 20 24 20C26.206 20 28 21.794 28 24C28 26.206 26.206 28 24 28Z" fill="white"/>
</svg>
