<svg width="40" height="36" viewBox="0 0 40 36" fill="none" xmlns="http://www.w3.org/2000/svg">
<path d="M37.544 12.31L34.808 4.102C34.4111 2.90697 33.6477 1.8674 32.6262 1.13102C31.6048 0.394632 30.3772 -0.00111641 29.118 2.36555e-06H10.882C9.62278 -0.00111641 8.39523 0.394632 7.37377 1.13102C6.35231 1.8674 5.5889 2.90697 5.192 4.102L2.456 12.31C1.72844 12.6144 1.10712 13.1271 0.670134 13.7837C0.233146 14.4402 -9.61801e-07 15.2113 0 16V26C0 27.476 0.808 28.752 2 29.446V34C2 34.5304 2.21071 35.0391 2.58579 35.4142C2.96086 35.7893 3.46957 36 4 36H6C6.53043 36 7.03914 35.7893 7.41421 35.4142C7.78929 35.0391 8 34.5304 8 34V30H32V34C32 34.5304 32.2107 35.0391 32.5858 35.4142C32.9609 35.7893 33.4696 36 34 36H36C36.5304 36 37.0391 35.7893 37.4142 35.4142C37.7893 35.0391 38 34.5304 38 34V29.446C38.6068 29.098 39.1111 28.5963 39.4623 27.9913C39.8134 27.3863 39.9989 26.6995 40 26V16C40 15.2113 39.7669 14.4402 39.3299 13.7837C38.8929 13.1271 38.2716 12.6144 37.544 12.31ZM10.882 4H29.116C29.978 4 30.742 4.548 31.014 5.368L33.226 12H6.774L8.984 5.368C9.1167 4.96959 9.37143 4.62305 9.7121 4.37752C10.0528 4.13198 10.4621 3.9999 10.882 4ZM7 24C6.6059 23.9999 6.21569 23.9221 5.85164 23.7712C5.4876 23.6202 5.15684 23.3991 4.87827 23.1203C4.59969 22.8416 4.37875 22.5107 4.22806 22.1465C4.07736 21.7824 3.99987 21.3921 4 20.998C4.00013 20.6039 4.07788 20.2137 4.22882 19.8496C4.37976 19.4856 4.60092 19.1548 4.87968 18.8763C5.15844 18.5977 5.48934 18.3768 5.85349 18.2261C6.21764 18.0754 6.6079 17.9979 7.002 17.998C7.79791 17.9983 8.56113 18.3147 9.12373 18.8777C9.68634 19.4407 10.0023 20.2041 10.002 21C10.0017 21.7959 9.6853 22.5591 9.12232 23.1217C8.55934 23.6843 7.79591 24.0003 7 24ZM33 24C32.6059 23.9999 32.2157 23.9221 31.8516 23.7712C31.4876 23.6202 31.1568 23.3991 30.8783 23.1203C30.5997 22.8416 30.3787 22.5107 30.2281 22.1465C30.0774 21.7824 29.9999 21.3921 30 20.998C30.0001 20.6039 30.0779 20.2137 30.2288 19.8496C30.3798 19.4856 30.6009 19.1548 30.8797 18.8763C31.1584 18.5977 31.4893 18.3768 31.8535 18.2261C32.2176 18.0754 32.6079 17.9979 33.002 17.998C33.7979 17.9983 34.5611 18.3147 35.1237 18.8777C35.6863 19.4407 36.0023 20.2041 36.002 21C36.0017 21.7959 35.6853 22.5591 35.1223 23.1217C34.5593 23.6843 33.7959 24.0003 33 24Z" fill="white"/>
</svg>
