<svg width="40" height="28" viewBox="0 0 40 28" fill="none" xmlns="http://www.w3.org/2000/svg">
<path d="M38 0H2C1.46957 0 0.960859 0.210714 0.585786 0.585787C0.210714 0.96086 0 1.46957 0 2V10H1.786C3.778 10 5.626 11.362 5.946 13.328C6.04349 13.9021 6.01452 14.4905 5.86113 15.0522C5.70774 15.614 5.43361 16.1354 5.05789 16.5803C4.68216 17.0252 4.21388 17.3827 3.68574 17.6279C3.15759 17.8731 2.58229 18.0001 2 18H0V26C0 26.5304 0.210714 27.0391 0.585786 27.4142C0.960859 27.7893 1.46957 28 2 28H38C38.5304 28 39.0391 27.7893 39.4142 27.4142C39.7893 27.0391 40 26.5304 40 26V18H38C37.4177 18.0001 36.8424 17.8731 36.3143 17.6279C35.7861 17.3827 35.3178 17.0252 34.9421 16.5803C34.5664 16.1354 34.2923 15.614 34.1389 15.0522C33.9855 14.4905 33.9565 13.9021 34.054 13.328C34.374 11.362 36.222 10 38.214 10H40V2C40 1.46957 39.7893 0.96086 39.4142 0.585787C39.0391 0.210714 38.5304 0 38 0ZM14 8C14.5304 8 15.0391 8.21071 15.4142 8.58579C15.7893 8.96086 16 9.46957 16 10C16 10.5304 15.7893 11.0391 15.4142 11.4142C15.0391 11.7893 14.5304 12 14 12C13.4696 12 12.9609 11.7893 12.5858 11.4142C12.2107 11.0391 12 10.5304 12 10C12 9.46957 12.2107 8.96086 12.5858 8.58579C12.9609 8.21071 13.4696 8 14 8ZM12.4 20.8L24.4 4.8L27.6 7.2L15.6 23.2L12.4 20.8ZM26 20C25.4696 20 24.9609 19.7893 24.5858 19.4142C24.2107 19.0391 24 18.5304 24 18C24 17.4696 24.2107 16.9609 24.5858 16.5858C24.9609 16.2107 25.4696 16 26 16C26.5304 16 27.0391 16.2107 27.4142 16.5858C27.7893 16.9609 28 17.4696 28 18C28 18.5304 27.7893 19.0391 27.4142 19.4142C27.0391 19.7893 26.5304 20 26 20Z" fill="white"/>
</svg>
