<svg width="40" height="32" viewBox="0 0 40 32" fill="none" xmlns="http://www.w3.org/2000/svg">
<path d="M38 0H2C1.46957 0 0.960859 0.210714 0.585786 0.585787C0.210714 0.96086 0 1.46957 0 2V30C0 30.5304 0.210714 31.0391 0.585786 31.4142C0.960859 31.7893 1.46957 32 2 32H38C38.5304 32 39.0391 31.7893 39.4142 31.4142C39.7893 31.0391 40 30.5304 40 30V2C40 1.46957 39.7893 0.96086 39.4142 0.585787C39.0391 0.210714 38.5304 0 38 0ZM36 22C34.4087 22 32.8826 22.6321 31.7574 23.7574C30.6321 24.8826 30 26.4087 30 28H10C10 26.4087 9.36786 24.8826 8.24264 23.7574C7.11742 22.6321 5.5913 22 4 22V10C5.5913 10 7.11742 9.36786 8.24264 8.24264C9.36786 7.11742 10 5.5913 10 4H30C30 5.5913 30.6321 7.11742 31.7574 8.24264C32.8826 9.36786 34.4087 10 36 10V22Z" fill="white"/>
</svg>
