<svg width="32" height="40" viewBox="0 0 32 40" fill="none" xmlns="http://www.w3.org/2000/svg">
<path d="M23.132 18.042C25.2215 16.8013 26.953 15.0393 28.1569 12.9284C29.3609 10.8175 29.9959 8.43009 30 6V4H32V0H0V4H2V6C2.00406 8.43009 2.63914 10.8175 3.84307 12.9284C5.04699 15.0393 6.77849 16.8013 8.868 18.042C9.576 18.458 10 19.132 10 19.842V20.158C10 20.866 9.576 21.538 8.868 21.958C6.77849 23.1987 5.04699 24.9607 3.84307 27.0716C2.63914 29.1825 2.00406 31.5699 2 34V36H0V40H32V36H30V34C29.9962 31.5704 29.3614 29.1834 28.1578 27.0728C26.9542 24.9622 25.2231 23.2004 23.134 21.96C22.424 21.54 22 20.866 22 20.158V19.842C22 19.132 22.424 18.458 23.132 18.042ZM26 34V36H6V34C6.00262 32.2653 6.45555 30.561 7.31447 29.0539C8.17338 27.5467 9.40886 26.2884 10.9 25.402C12.205 24.6416 13.1888 23.4324 13.668 22H18.332C18.792 23.382 19.74 24.6 21.102 25.404C22.5927 26.2902 23.8279 27.5482 24.6864 29.055C25.545 30.5618 25.9976 32.2658 26 34Z" fill="white"/>
</svg>
